<svg width="30" height="30" viewBox="0 0 30 30" fill="none" xmlns="http://www.w3.org/2000/svg">
<path d="M26.9805 5.99018C26.7207 5.99792 26.4741 6.1065 26.293 6.29292L11 21.5859L4.70702 15.2929C4.61488 15.1969 4.50451 15.1203 4.38238 15.0675C4.26025 15.0147 4.12882 14.9869 3.99578 14.9855C3.86274 14.9842 3.73076 15.0094 3.60759 15.0597C3.48441 15.1099 3.37251 15.1843 3.27843 15.2784C3.18435 15.3725 3.10999 15.4844 3.0597 15.6075C3.00941 15.7307 2.9842 15.8627 2.98556 15.9957C2.98691 16.1288 3.0148 16.2602 3.06758 16.3823C3.12037 16.5045 3.19699 16.6148 3.29296 16.707L10.293 23.707C10.4805 23.8944 10.7348 23.9998 11 23.9998C11.2652 23.9998 11.5195 23.8944 11.707 23.707L27.707 7.70698C27.8515 7.56652 27.9502 7.38567 27.9902 7.18815C28.0301 6.99063 28.0095 6.78565 27.931 6.60007C27.8524 6.41448 27.7196 6.25695 27.55 6.14812C27.3804 6.03929 27.1819 5.98424 26.9805 5.99018Z" fill="black"/>
</svg>
